<svg xmlns="http://www.w3.org/2000/svg" viewBox="0 0 128 128" width="128" height="128"><rect width="128" height="128" fill="#0b182b"/><g transform="translate(64 64) rotate(0)" fill="none" stroke-linecap="round"><path d="M22.0 -65.2 L22.0 -64.5 L21.9 -63.8 L21.8 -63.0 L21.7 -62.3 L21.5 -61.6 L21.3 -60.9 L21.0 -60.2 L20.8 -59.5 L20.4 -58.8 L20.1 -58.1 L19.7 -57.4 L19.3 -56.7 L18.8 -56.0 L18.3 -55.2 L17.8 -54.5 L17.2 -53.8 L16.6 -53.1 L16.0 -52.4 L15.4 -51.7 L14.7 -51.0 L14.0 -50.3 L13.3 -49.6 L12.5 -48.9 L11.7 -48.2 L11.0 -47.5 L10.2 -46.8 L9.3 -46.0 L8.5 -45.3 L7.6 -44.6 L6.8 -43.9 L5.9 -43.2 L5.0 -42.5 L4.1 -41.8 L3.2 -41.1 L2.3 -40.4 L1.3 -39.7 L0.4 -39.0 L-0.5 -38.2 L-1.4 -37.5 L-2.3 -36.8 L-3.3 -36.1 L-4.2 -35.4 L-5.1 -34.7 L-6.0 -34.0 L-6.8 -33.3 L-7.7 -32.6 L-8.6 -31.9 L-9.4 -31.2 L-10.2 -30.5 L-11.0 -29.8 L-11.8 -29.0 L-12.6 -28.3 L-13.3 -27.6 L-14.1 -26.9 L-14.8 -26.2 L-15.4 -25.5 L-16.1 -24.8 L-16.7 -24.1 L-17.3 -23.4 L-17.8 -22.7 L-18.3 -22.0 L-18.8 -21.2 L-19.3 -20.5 L-19.7 -19.8 L-20.1 -19.1 L-20.5 -18.4 L-20.8 -17.7 L-21.1 -17.0 L-21.3 -16.3 L-21.5 -15.6 L-21.7 -14.9 L-21.8 -14.2 L-21.9 -13.5 L-22.0 -12.8" stroke="#3283f8" stroke-width="4.4" opacity="0.45"/><path d="M22.0 41.1 L22.0 41.8 L21.9 42.5 L21.8 43.2 L21.7 43.9 L21.5 44.6 L21.3 45.3 L21.0 46.0 L20.8 46.8 L20.4 47.5 L20.1 48.2 L19.7 48.9 L19.3 49.6 L18.8 50.3 L18.3 51.0 L17.8 51.7 L17.2 52.4 L16.6 53.1 L16.0 53.8 L15.4 54.5 L14.7 55.2 L14.0 56.0 L13.3 56.7 L12.5 57.4 L11.7 58.1 L11.0 58.8 L10.2 59.5 L9.3 60.2 L8.5 60.9 L7.6 61.6 L6.8 62.3 L5.9 63.0 L5.0 63.8 L4.1 64.5 L3.2 65.2 L2.3 65.9 L1.3 66.6 L0.4 67.3 L-0.5 68.0 L-1.4 68.7 L-2.3 69.4 L-3.3 70.1 L-4.2 70.8 L-5.1 71.5 L-6.0 72.2 L-6.8 73.0 L-7.7 73.7 L-8.6 74.4 L-9.4 75.1 L-10.2 75.8 L-11.0 76.5 L-11.8 77.2 L-12.6 77.9 L-13.3 78.6 L-14.1 79.3 L-14.8 80.0 L-15.4 80.8 L-16.1 81.5 L-16.7 82.2 L-17.3 82.9 L-17.8 83.6 L-18.3 84.3 L-18.8 85.0" stroke="#3283f8" stroke-width="4.4" opacity="0.45"/><path d="M-8.6 -85.0 L-9.4 -84.3 L-10.2 -83.6 L-11.0 -82.9 L-11.8 -82.2 L-12.6 -81.5 L-13.3 -80.8 L-14.1 -80.0 L-14.8 -79.3 L-15.4 -78.6 L-16.1 -77.9 L-16.7 -77.2 L-17.3 -76.5 L-17.8 -75.8 L-18.3 -75.1 L-18.8 -74.4 L-19.3 -73.7 L-19.7 -73.0 L-20.1 -72.2 L-20.5 -71.5 L-20.8 -70.8 L-21.1 -70.1 L-21.3 -69.4 L-21.5 -68.7 L-21.7 -68.0 L-21.8 -67.3 L-21.9 -66.6 L-22.0 -65.9" stroke="#10b98a" stroke-width="4.4" opacity="0.45"/><path d="M22.0 -12.0 L22.0 -11.3 L21.9 -10.6 L21.8 -9.9 L21.7 -9.2 L21.5 -8.5 L21.3 -7.8 L21.0 -7.1 L20.8 -6.4 L20.4 -5.7 L20.1 -5.0 L19.7 -4.2 L19.3 -3.5 L18.8 -2.8 L18.3 -2.1 L17.8 -1.4 L17.2 -0.7 L16.6 0.0 L16.0 0.7 L15.4 1.4 L14.7 2.1 L14.0 2.8 L13.3 3.5 L12.5 4.2 L11.7 5.0 L11.0 5.7 L10.2 6.4 L9.3 7.1 L8.5 7.8 L7.6 8.5 L6.8 9.2 L5.9 9.9 L5.0 10.6 L4.1 11.3 L3.2 12.0 L2.3 12.7 L1.3 13.5 L0.4 14.2 L-0.5 14.9 L-1.4 15.6 L-2.3 16.3 L-3.3 17.0 L-4.2 17.7 L-5.1 18.4 L-6.0 19.1 L-6.8 19.8 L-7.7 20.5 L-8.6 21.2 L-9.4 22.0 L-10.2 22.7 L-11.0 23.4 L-11.8 24.1 L-12.6 24.8 L-13.3 25.5 L-14.1 26.2 L-14.8 26.9 L-15.4 27.6 L-16.1 28.3 L-16.7 29.0 L-17.3 29.8 L-17.8 30.5 L-18.3 31.2 L-18.8 31.9 L-19.3 32.6 L-19.7 33.3 L-20.1 34.0 L-20.5 34.7 L-20.8 35.4 L-21.1 36.1 L-21.3 36.8 L-21.5 37.5 L-21.7 38.2 L-21.8 39.0 L-21.9 39.7 L-22.0 40.4" stroke="#10b98a" stroke-width="4.4" opacity="0.45"/><path d="M15.1 -78.9 L-15.1 -78.9" stroke="#8ec6ff" stroke-width="3.0" opacity="0.62"/><path d="M21.9 -66.8 L-21.9 -66.8" stroke="#8ec6ff" stroke-width="3.0" opacity="0.50"/><path d="M17.8 -54.6 L-17.8 -54.6" stroke="#8ec6ff" stroke-width="3.0" opacity="0.58"/><path d="M5.0 -42.5 L-5.0 -42.5" stroke="#8ec6ff" stroke-width="3.0" opacity="0.81"/><path d="M-10.3 -30.4 L10.3 -30.4" stroke="#8ec6ff" stroke-width="3.0" opacity="0.71"/><path d="M-20.6 -18.2 L20.6 -18.2" stroke="#8ec6ff" stroke-width="3.0" opacity="0.53"/><path d="M-20.6 -6.1 L20.6 -6.1" stroke="#8ec6ff" stroke-width="3.0" opacity="0.52"/><path d="M-10.5 6.1 L10.5 6.1" stroke="#8ec6ff" stroke-width="3.0" opacity="0.71"/><path d="M4.8 18.2 L-4.8 18.2" stroke="#8ec6ff" stroke-width="3.0" opacity="0.81"/><path d="M17.7 30.4 L-17.7 30.4" stroke="#8ec6ff" stroke-width="3.0" opacity="0.58"/><path d="M21.9 42.5 L-21.9 42.5" stroke="#8ec6ff" stroke-width="3.0" opacity="0.50"/><path d="M15.3 54.6 L-15.3 54.6" stroke="#8ec6ff" stroke-width="3.0" opacity="0.62"/><path d="M1.1 66.8 L-1.1 66.8" stroke="#8ec6ff" stroke-width="3.0" opacity="0.88"/><path d="M-13.6 78.9 L13.6 78.9" stroke="#8ec6ff" stroke-width="3.0" opacity="0.65"/><path d="M8.6 -85.0 L9.4 -84.3 L10.2 -83.6 L11.0 -82.9 L11.8 -82.2 L12.6 -81.5 L13.3 -80.8 L14.1 -80.0 L14.8 -79.3 L15.4 -78.6 L16.1 -77.9 L16.7 -77.2 L17.3 -76.5 L17.8 -75.8 L18.3 -75.1 L18.8 -74.4 L19.3 -73.7 L19.7 -73.0 L20.1 -72.2 L20.5 -71.5 L20.8 -70.8 L21.1 -70.1 L21.3 -69.4 L21.5 -68.7 L21.7 -68.0 L21.8 -67.3 L21.9 -66.6 L22.0 -65.9" stroke="#3283f8" stroke-width="5.5"/><path d="M-22.0 -12.0 L-22.0 -11.3 L-21.9 -10.6 L-21.8 -9.9 L-21.7 -9.2 L-21.5 -8.5 L-21.3 -7.8 L-21.0 -7.1 L-20.8 -6.4 L-20.4 -5.7 L-20.1 -5.0 L-19.7 -4.2 L-19.3 -3.5 L-18.8 -2.8 L-18.3 -2.1 L-17.8 -1.4 L-17.2 -0.7 L-16.6 0.0 L-16.0 0.7 L-15.4 1.4 L-14.7 2.1 L-14.0 2.8 L-13.3 3.5 L-12.5 4.2 L-11.7 5.0 L-11.0 5.7 L-10.2 6.4 L-9.3 7.1 L-8.5 7.8 L-7.6 8.5 L-6.8 9.2 L-5.9 9.9 L-5.0 10.6 L-4.1 11.3 L-3.2 12.0 L-2.3 12.7 L-1.3 13.5 L-0.4 14.2 L0.5 14.9 L1.4 15.6 L2.3 16.3 L3.3 17.0 L4.2 17.7 L5.1 18.4 L6.0 19.1 L6.8 19.8 L7.7 20.5 L8.6 21.2 L9.4 22.0 L10.2 22.7 L11.0 23.4 L11.8 24.1 L12.6 24.8 L13.3 25.5 L14.1 26.2 L14.8 26.9 L15.4 27.6 L16.1 28.3 L16.7 29.0 L17.3 29.8 L17.8 30.5 L18.3 31.2 L18.8 31.9 L19.3 32.6 L19.7 33.3 L20.1 34.0 L20.5 34.7 L20.8 35.4 L21.1 36.1 L21.3 36.8 L21.5 37.5 L21.7 38.2 L21.8 39.0 L21.9 39.7 L22.0 40.4" stroke="#3283f8" stroke-width="5.5"/><path d="M-22.0 -65.2 L-22.0 -64.5 L-21.9 -63.8 L-21.8 -63.0 L-21.7 -62.3 L-21.5 -61.6 L-21.3 -60.9 L-21.0 -60.2 L-20.8 -59.5 L-20.4 -58.8 L-20.1 -58.1 L-19.7 -57.4 L-19.3 -56.7 L-18.8 -56.0 L-18.3 -55.2 L-17.8 -54.5 L-17.2 -53.8 L-16.6 -53.1 L-16.0 -52.4 L-15.4 -51.7 L-14.7 -51.0 L-14.0 -50.3 L-13.3 -49.6 L-12.5 -48.9 L-11.7 -48.2 L-11.0 -47.5 L-10.2 -46.8 L-9.3 -46.0 L-8.5 -45.3 L-7.6 -44.6 L-6.8 -43.9 L-5.9 -43.2 L-5.0 -42.5 L-4.1 -41.8 L-3.2 -41.1 L-2.3 -40.4 L-1.3 -39.7 L-0.4 -39.0 L0.5 -38.2 L1.4 -37.5 L2.3 -36.8 L3.3 -36.1 L4.2 -35.4 L5.1 -34.7 L6.0 -34.0 L6.8 -33.3 L7.7 -32.6 L8.6 -31.9 L9.4 -31.2 L10.2 -30.5 L11.0 -29.8 L11.8 -29.0 L12.6 -28.3 L13.3 -27.6 L14.1 -26.9 L14.8 -26.2 L15.4 -25.5 L16.1 -24.8 L16.7 -24.1 L17.3 -23.4 L17.8 -22.7 L18.3 -22.0 L18.8 -21.2 L19.3 -20.5 L19.7 -19.8 L20.1 -19.1 L20.5 -18.4 L20.8 -17.7 L21.1 -17.0 L21.3 -16.3 L21.5 -15.6 L21.7 -14.9 L21.8 -14.2 L21.9 -13.5 L22.0 -12.8" stroke="#10b98a" stroke-width="5.5"/><path d="M-22.0 41.1 L-22.0 41.8 L-21.9 42.5 L-21.8 43.2 L-21.7 43.9 L-21.5 44.6 L-21.3 45.3 L-21.0 46.0 L-20.8 46.8 L-20.4 47.5 L-20.1 48.2 L-19.7 48.9 L-19.3 49.6 L-18.8 50.3 L-18.3 51.0 L-17.8 51.7 L-17.2 52.4 L-16.6 53.1 L-16.0 53.8 L-15.4 54.5 L-14.7 55.2 L-14.0 56.0 L-13.3 56.7 L-12.5 57.4 L-11.7 58.1 L-11.0 58.8 L-10.2 59.5 L-9.3 60.2 L-8.5 60.9 L-7.6 61.6 L-6.8 62.3 L-5.9 63.0 L-5.0 63.8 L-4.1 64.5 L-3.2 65.2 L-2.3 65.9 L-1.3 66.6 L-0.4 67.3 L0.5 68.0 L1.4 68.7 L2.3 69.4 L3.3 70.1 L4.2 70.8 L5.1 71.5 L6.0 72.2 L6.8 73.0 L7.7 73.7 L8.6 74.4 L9.4 75.1 L10.2 75.8 L11.0 76.5 L11.8 77.2 L12.6 77.9 L13.3 78.6 L14.1 79.3 L14.8 80.0 L15.4 80.8 L16.1 81.5 L16.7 82.2 L17.3 82.9 L17.8 83.6 L18.3 84.3 L18.8 85.0" stroke="#10b98a" stroke-width="5.5"/><circle cx="15.1" cy="-78.9" r="4.2" fill="#3283f8"/><circle cx="21.9" cy="-66.8" r="4.2" fill="#3283f8"/><circle cx="-17.8" cy="-54.6" r="4.2" fill="#10b98a"/><circle cx="-5.0" cy="-42.5" r="4.2" fill="#10b98a"/><circle cx="10.3" cy="-30.4" r="4.2" fill="#10b98a"/><circle cx="20.6" cy="-18.2" r="4.2" fill="#10b98a"/><circle cx="-20.6" cy="-6.1" r="4.2" fill="#3283f8"/><circle cx="-10.5" cy="6.1" r="4.2" fill="#3283f8"/><circle cx="4.8" cy="18.2" r="4.2" fill="#3283f8"/><circle cx="17.7" cy="30.4" r="4.2" fill="#3283f8"/><circle cx="-21.9" cy="42.5" r="4.2" fill="#10b98a"/><circle cx="-15.3" cy="54.6" r="4.2" fill="#10b98a"/><circle cx="-1.1" cy="66.8" r="4.2" fill="#10b98a"/><circle cx="13.6" cy="78.9" r="4.2" fill="#10b98a"/></g></svg>
